<svg xmlns="http://www.w3.org/2000/svg" id="export" class="canvas" preserveAspectRatio="xMidYMid meet" style="" width="172" height="612"><rect id="background" fill="#fff" pointer-events="all" width="172" height="612"/><g id="origin" transform="translate(7.8083740234375005, 7.8083740234375005) scale(1)"><g id="clusters" class="clusters"/><g id="edge-paths" class="edge-paths"><defs><marker id="arrowhead" viewBox="0 0 10 10" refX="9" refY="5" markerUnits="strokeWidth" markerWidth="8" markerHeight="6" orient="auto" style="fill: rgb(0, 0, 0);"><path d="M 0 0 L 10 5 L 0 10 L 4 5 z" style="stroke-width: 1;"/></marker><marker id="arrowhead-select" viewBox="0 0 10 10" refX="9" refY="5" markerUnits="strokeWidth" markerWidth="8" markerHeight="6" orient="auto" style="fill: rgb(238, 0, 0);"><path d="M 0 0 L 10 5 L 0 10 L 4 5 z" style="stroke-width: 1;"/></marker><marker id="arrowhead-hover" viewBox="0 0 10 10" refX="9" refY="5" markerUnits="strokeWidth" markerWidth="8" markerHeight="6" orient="auto" style="fill: rgb(238, 0, 0);"><path d="M 0 0 L 10 5 L 0 10 L 4 5 z" style="stroke-width: 1;"/></marker></defs><path class="edge-path-hit-test" d="M27.90185546875,210L27.90185546875,211.66666666666666C27.90185546875,213.33333333333334,27.90185546875,216.66666666666666,27.90185546875,226.66666666666666C27.90185546875,236.66666666666666,27.90185546875,253.33333333333334,27.90185546875,270C27.90185546875,286.6666666666667,27.90185546875,303.3333333333333,31.099227077277135,313.3333333333333C34.29659868580426,323.3333333333333,40.69134190285853,326.6666666666667,43.88871351138567,328.3333333333333L47.086085119912795,330" style="pointer-events: stroke; stroke-width: 0.5em; fill: none; stroke-opacity: 0;"/><path id="edge-input_19" class="edge-path" d="M27.90185546875,210L27.90185546875,211.66666666666666C27.90185546875,213.33333333333334,27.90185546875,216.66666666666666,27.90185546875,226.66666666666666C27.90185546875,236.66666666666666,27.90185546875,253.33333333333334,27.90185546875,270C27.90185546875,286.6666666666667,27.90185546875,303.3333333333333,31.099227077277135,313.3333333333333C34.29659868580426,323.3333333333333,40.69134190285853,326.6666666666667,43.88871351138567,328.3333333333333L47.086085119912795,330" style="stroke: rgb(0, 0, 0); stroke-width: 1px; fill: none; marker-end: url(&quot;#arrowhead&quot;);"/><path class="edge-path-hit-test" d="M110.39404296875,23L110.39404296875,24.666666666666668C110.39404296875,26.333333333333332,110.39404296875,29.666666666666668,110.39404296875,35C110.39404296875,40.333333333333336,110.39404296875,47.666666666666664,110.39404296875,55C110.39404296875,62.333333333333336,110.39404296875,69.66666666666667,110.39404296875,75C110.39404296875,80.33333333333333,110.39404296875,83.66666666666667,110.39404296875,85.33333333333333L110.39404296875,87" style="pointer-events: stroke; stroke-width: 0.5em; fill: none; stroke-opacity: 0;"/><path id="edge-input_20" class="edge-path" d="M110.39404296875,23L110.39404296875,24.666666666666668C110.39404296875,26.333333333333332,110.39404296875,29.666666666666668,110.39404296875,35C110.39404296875,40.333333333333336,110.39404296875,47.666666666666664,110.39404296875,55C110.39404296875,62.333333333333336,110.39404296875,69.66666666666667,110.39404296875,75C110.39404296875,80.33333333333333,110.39404296875,83.66666666666667,110.39404296875,85.33333333333333L110.39404296875,87" style="stroke: rgb(0, 0, 0); stroke-width: 1px; fill: none; marker-end: url(&quot;#arrowhead&quot;);"/><path class="edge-path-hit-test" d="M110.39404296875,167L110.39404296875,168.66666666666666C110.39404296875,170.33333333333334,110.39404296875,173.66666666666666,110.39404296875,177C110.39404296875,180.33333333333334,110.39404296875,183.66666666666666,110.39404296875,185.33333333333334L110.39404296875,187" style="pointer-events: stroke; stroke-width: 0.5em; fill: none; stroke-opacity: 0;"/><path id="edge-dense_36" class="edge-path" d="M110.39404296875,167L110.39404296875,168.66666666666666C110.39404296875,170.33333333333334,110.39404296875,173.66666666666666,110.39404296875,177C110.39404296875,180.33333333333334,110.39404296875,183.66666666666666,110.39404296875,185.33333333333334L110.39404296875,187" style="stroke: rgb(0, 0, 0); stroke-width: 1px; fill: none; marker-end: url(&quot;#arrowhead&quot;);"/><path class="edge-path-hit-test" d="M110.39404296875,210L110.39404296875,211.66666666666666C110.39404296875,213.33333333333334,110.39404296875,216.66666666666666,110.39404296875,220C110.39404296875,223.33333333333334,110.39404296875,226.66666666666666,110.39404296875,228.33333333333334L110.39404296875,230" style="pointer-events: stroke; stroke-width: 0.5em; fill: none; stroke-opacity: 0;"/><path id="edge-dropout_9" class="edge-path" d="M110.39404296875,210L110.39404296875,211.66666666666666C110.39404296875,213.33333333333334,110.39404296875,216.66666666666666,110.39404296875,220C110.39404296875,223.33333333333334,110.39404296875,226.66666666666666,110.39404296875,228.33333333333334L110.39404296875,230" style="stroke: rgb(0, 0, 0); stroke-width: 1px; fill: none; marker-end: url(&quot;#arrowhead&quot;);"/><path class="edge-path-hit-test" d="M110.39404296875,310L110.39404296875,311.6666666666667C110.39404296875,313.3333333333333,110.39404296875,316.6666666666667,107.19667136022287,320C103.99929975169573,323.3333333333333,97.60455653464146,326.6666666666667,94.40718492611434,328.3333333333333L91.2098133175872,330" style="pointer-events: stroke; stroke-width: 0.5em; fill: none; stroke-opacity: 0;"/><path id="edge-dense_37" class="edge-path" d="M110.39404296875,310L110.39404296875,311.6666666666667C110.39404296875,313.3333333333333,110.39404296875,316.6666666666667,107.19667136022287,320C103.99929975169573,323.3333333333333,97.60455653464146,326.6666666666667,94.40718492611434,328.3333333333333L91.2098133175872,330" style="stroke: rgb(0, 0, 0); stroke-width: 1px; fill: none; marker-end: url(&quot;#arrowhead&quot;);"/><path class="edge-path-hit-test" d="M69.14794921875,353L69.14794921875,354.6666666666667C69.14794921875,356.3333333333333,69.14794921875,359.6666666666667,69.14794921875,363C69.14794921875,366.3333333333333,69.14794921875,369.6666666666667,69.14794921875,371.3333333333333L69.14794921875,373" style="pointer-events: stroke; stroke-width: 0.5em; fill: none; stroke-opacity: 0;"/><path id="edge-concatenate_9" class="edge-path" d="M69.14794921875,353L69.14794921875,354.6666666666667C69.14794921875,356.3333333333333,69.14794921875,359.6666666666667,69.14794921875,363C69.14794921875,366.3333333333333,69.14794921875,369.6666666666667,69.14794921875,371.3333333333333L69.14794921875,373" style="stroke: rgb(0, 0, 0); stroke-width: 1px; fill: none; marker-end: url(&quot;#arrowhead&quot;);"/><path class="edge-path-hit-test" d="M69.14794921875,453L69.14794921875,454.6666666666667C69.14794921875,456.3333333333333,69.14794921875,459.6666666666667,69.14794921875,463C69.14794921875,466.3333333333333,69.14794921875,469.6666666666667,69.14794921875,471.3333333333333L69.14794921875,473" style="pointer-events: stroke; stroke-width: 0.5em; fill: none; stroke-opacity: 0;"/><path id="edge-dense_38" class="edge-path" d="M69.14794921875,453L69.14794921875,454.6666666666667C69.14794921875,456.3333333333333,69.14794921875,459.6666666666667,69.14794921875,463C69.14794921875,466.3333333333333,69.14794921875,469.6666666666667,69.14794921875,471.3333333333333L69.14794921875,473" style="stroke: rgb(0, 0, 0); stroke-width: 1px; fill: none; marker-end: url(&quot;#arrowhead&quot;);"/><path class="edge-path-hit-test" d="M69.14794921875,553L69.14794921875,554.6666666666666C69.14794921875,556.3333333333334,69.14794921875,559.6666666666666,69.14794921875,563C69.14794921875,566.3333333333334,69.14794921875,569.6666666666666,69.14794921875,571.3333333333334L69.14794921875,573" style="pointer-events: stroke; stroke-width: 0.5em; fill: none; stroke-opacity: 0;"/><path id="edge-dense_39" class="edge-path" d="M69.14794921875,553L69.14794921875,554.6666666666666C69.14794921875,556.3333333333334,69.14794921875,559.6666666666666,69.14794921875,563C69.14794921875,566.3333333333334,69.14794921875,569.6666666666666,69.14794921875,571.3333333333334L69.14794921875,573" style="stroke: rgb(0, 0, 0); stroke-width: 1px; fill: none; marker-end: url(&quot;#arrowhead&quot;);"/></g><g id="edge-labels" class="edge-labels"><text class="edge-label" id="edge-label-edge-input_19" transform="translate(32.90185546875,263)" style="opacity: 1; font-family: -apple-system, BlinkMacSystemFont, &quot;Segoe WPC&quot;, &quot;Segoe UI&quot;, Ubuntu, &quot;Droid Sans&quot;, sans-serif, &quot;PingFang SC&quot;; font-size: 10px;"><tspan xml:space="preserve" dy="1em" x="1">?×1</tspan></text><text class="edge-label" id="edge-label-edge-input_20" transform="translate(115.39404296875,48)" style="opacity: 1; font-family: -apple-system, BlinkMacSystemFont, &quot;Segoe WPC&quot;, &quot;Segoe UI&quot;, Ubuntu, &quot;Droid Sans&quot;, sans-serif, &quot;PingFang SC&quot;; font-size: 10px;"><tspan xml:space="preserve" dy="1em" x="1">?×1</tspan></text></g><g id="nodes" class="nodes"><g id="input-name-input_19" class="node graph-input" transform="translate(0,187)" style="opacity: 1;"><g class="node-item graph-item-input" transform="translate(0,0)"><path d="M5,0h45.8037109375a5,5 0 0 1 5,5v13a5,5 0 0 1 -5,5h-45.8037109375a5,5 0 0 1 -5,-5v-13a5,5 0 0 1 5,-5z" style="stroke: rgb(0, 0, 0); fill: rgb(238, 238, 238); stroke-width: 0;"/><text x="6" y="16" style="font-family: -apple-system, BlinkMacSystemFont, &quot;Segoe WPC&quot;, &quot;Segoe UI&quot;, Ubuntu, &quot;Droid Sans&quot;, sans-serif, &quot;PingFang SC&quot;; font-size: 11px; text-rendering: geometricprecision;">input_19</text><title>float32[?,1]</title></g><path class="node border" d="M5,0h45.8037109375a5,5 0 0 1 5,5v13a5,5 0 0 1 -5,5h-45.8037109375a5,5 0 0 1 -5,-5v-13a5,5 0 0 1 5,-5z" style="stroke: rgb(51, 51, 51); fill: none; stroke-width: 1px;"/></g><g id="input-name-input_20" class="node graph-input" transform="translate(82.4921875,0)" style="opacity: 1;"><g class="node-item graph-item-input" transform="translate(0,0)"><path d="M5,0h45.8037109375a5,5 0 0 1 5,5v13a5,5 0 0 1 -5,5h-45.8037109375a5,5 0 0 1 -5,-5v-13a5,5 0 0 1 5,-5z" style="stroke: rgb(0, 0, 0); fill: rgb(238, 238, 238); stroke-width: 0;"/><text x="6" y="16" style="font-family: -apple-system, BlinkMacSystemFont, &quot;Segoe WPC&quot;, &quot;Segoe UI&quot;, Ubuntu, &quot;Droid Sans&quot;, sans-serif, &quot;PingFang SC&quot;; font-size: 11px; text-rendering: geometricprecision;">input_20</text><title>float32[?,1]</title></g><path class="node border" d="M5,0h45.8037109375a5,5 0 0 1 5,5v13a5,5 0 0 1 -5,5h-45.8037109375a5,5 0 0 1 -5,-5v-13a5,5 0 0 1 5,-5z" style="stroke: rgb(51, 51, 51); fill: none; stroke-width: 1px;"/></g><g id="node-name-dense_36" class="node graph-node" transform="translate(69.47216796875,87)" style="opacity: 1;"><g class="node-item node-item-type node-item-type-layer" transform="translate(0,0)"><path d="M5,0h71.84375a5,5 0 0 1 5,5v18a0,0 0 0 1 0,0h-81.84375a0,0 0 0 1 0,0v-18a5,5 0 0 1 5,-5z" style="stroke: rgb(0, 0, 0); fill: rgb(51, 85, 136); stroke-width: 0;"/><text x="6" y="16" style="font-family: -apple-system, BlinkMacSystemFont, &quot;Segoe WPC&quot;, &quot;Segoe UI&quot;, Ubuntu, &quot;Droid Sans&quot;, sans-serif, &quot;PingFang SC&quot;; font-size: 11px; text-rendering: geometricprecision; fill: rgb(255, 255, 255);">Dense</text><title>dense_36</title></g><g class="node-attribute" transform="translate(0,23)"><path d="M0,0h81.84375a0,0 0 0 1 0,0v34a0,0 0 0 1 0,0h-81.84375a0,0 0 0 1 0,0v-34a0,0 0 0 1 0,0z" style="stroke: rgb(0, 0, 0); fill: rgb(255, 255, 255); stroke-width: 0;"/><text id="initializer-dense_36/kernel:0" xml:space="preserve" x="6" y="14" style="font-family: -apple-system, BlinkMacSystemFont, &quot;Segoe WPC&quot;, &quot;Segoe UI&quot;, Ubuntu, &quot;Droid Sans&quot;, sans-serif, &quot;PingFang SC&quot;; font-size: 9px; font-weight: normal; text-rendering: geometricprecision;"><title>float32[1,256]</title><tspan style="font-weight: bold;">kernel</tspan><tspan>〈1×256〉</tspan></text><text id="initializer-dense_36/bias:0" xml:space="preserve" x="6" y="28" style="font-family: -apple-system, BlinkMacSystemFont, &quot;Segoe WPC&quot;, &quot;Segoe UI&quot;, Ubuntu, &quot;Droid Sans&quot;, sans-serif, &quot;PingFang SC&quot;; font-size: 9px; font-weight: normal; text-rendering: geometricprecision;"><title>float32[256]</title><tspan style="font-weight: bold;">bias</tspan><tspan>〈256〉</tspan></text><line class="node" x1="0" x2="81.84375" y1="0" y2="0" style="stroke: rgb(51, 51, 51); fill: none; stroke-width: 1px;"/></g><g class="node-item node-item-type node-item-type-activation" transform="translate(0,57)"><path d="M0,0h81.84375a0,0 0 0 1 0,0v18a5,5 0 0 1 -5,5h-71.84375a5,5 0 0 1 -5,-5v-18a0,0 0 0 1 0,0z" style="stroke: rgb(0, 0, 0); fill: rgb(112, 41, 33); stroke-width: 0;"/><text x="6" y="16" style="font-family: -apple-system, BlinkMacSystemFont, &quot;Segoe WPC&quot;, &quot;Segoe UI&quot;, Ubuntu, &quot;Droid Sans&quot;, sans-serif, &quot;PingFang SC&quot;; font-size: 11px; text-rendering: geometricprecision; fill: rgb(255, 255, 255);">ReLU</text></g><line class="node" x1="0" x2="81.84375" y1="57" y2="57" style="stroke: rgb(51, 51, 51); fill: none; stroke-width: 1px;"/><path class="node border" d="M5,0h71.84375a5,5 0 0 1 5,5v70a5,5 0 0 1 -5,5h-71.84375a5,5 0 0 1 -5,-5v-70a5,5 0 0 1 5,-5z" style="stroke: rgb(51, 51, 51); fill: none; stroke-width: 1px;"/></g><g id="node-name-dropout_9" class="node graph-node" transform="translate(82.834228515625,187)" style="opacity: 1;"><g class="node-item node-item-type node-item-type-dropout" transform="translate(0,0)"><path d="M5,0h45.11962890625a5,5 0 0 1 5,5v13a5,5 0 0 1 -5,5h-45.11962890625a5,5 0 0 1 -5,-5v-13a5,5 0 0 1 5,-5z" style="stroke: rgb(0, 0, 0); fill: rgb(69, 71, 112); stroke-width: 0;"/><text x="6" y="16" style="font-family: -apple-system, BlinkMacSystemFont, &quot;Segoe WPC&quot;, &quot;Segoe UI&quot;, Ubuntu, &quot;Droid Sans&quot;, sans-serif, &quot;PingFang SC&quot;; font-size: 11px; text-rendering: geometricprecision; fill: rgb(255, 255, 255);">Dropout</text><title>dropout_9</title></g><path class="node border" d="M5,0h45.11962890625a5,5 0 0 1 5,5v13a5,5 0 0 1 -5,5h-45.11962890625a5,5 0 0 1 -5,-5v-13a5,5 0 0 1 5,-5z" style="stroke: rgb(51, 51, 51); fill: none; stroke-width: 1px;"/></g><g id="node-name-dense_37" class="node graph-node" transform="translate(64.62060546875,230)" style="opacity: 1;"><g class="node-item node-item-type node-item-type-layer" transform="translate(0,0)"><path d="M5,0h81.546875a5,5 0 0 1 5,5v18a0,0 0 0 1 0,0h-91.546875a0,0 0 0 1 0,0v-18a5,5 0 0 1 5,-5z" style="stroke: rgb(0, 0, 0); fill: rgb(51, 85, 136); stroke-width: 0;"/><text x="6" y="16" style="font-family: -apple-system, BlinkMacSystemFont, &quot;Segoe WPC&quot;, &quot;Segoe UI&quot;, Ubuntu, &quot;Droid Sans&quot;, sans-serif, &quot;PingFang SC&quot;; font-size: 11px; text-rendering: geometricprecision; fill: rgb(255, 255, 255);">Dense</text><title>dense_37</title></g><g class="node-attribute" transform="translate(0,23)"><path d="M0,0h91.546875a0,0 0 0 1 0,0v34a0,0 0 0 1 0,0h-91.546875a0,0 0 0 1 0,0v-34a0,0 0 0 1 0,0z" style="stroke: rgb(0, 0, 0); fill: rgb(255, 255, 255); stroke-width: 0;"/><text id="initializer-dense_37/kernel:0" xml:space="preserve" x="6" y="14" style="font-family: -apple-system, BlinkMacSystemFont, &quot;Segoe WPC&quot;, &quot;Segoe UI&quot;, Ubuntu, &quot;Droid Sans&quot;, sans-serif, &quot;PingFang SC&quot;; font-size: 9px; font-weight: normal; text-rendering: geometricprecision;"><title>float32[256,128]</title><tspan style="font-weight: bold;">kernel</tspan><tspan>〈256×128〉</tspan></text><text id="initializer-dense_37/bias:0" xml:space="preserve" x="6" y="28" style="font-family: -apple-system, BlinkMacSystemFont, &quot;Segoe WPC&quot;, &quot;Segoe UI&quot;, Ubuntu, &quot;Droid Sans&quot;, sans-serif, &quot;PingFang SC&quot;; font-size: 9px; font-weight: normal; text-rendering: geometricprecision;"><title>float32[128]</title><tspan style="font-weight: bold;">bias</tspan><tspan>〈128〉</tspan></text><line class="node" x1="0" x2="91.546875" y1="0" y2="0" style="stroke: rgb(51, 51, 51); fill: none; stroke-width: 1px;"/></g><g class="node-item node-item-type node-item-type-activation" transform="translate(0,57)"><path d="M0,0h91.546875a0,0 0 0 1 0,0v18a5,5 0 0 1 -5,5h-81.546875a5,5 0 0 1 -5,-5v-18a0,0 0 0 1 0,0z" style="stroke: rgb(0, 0, 0); fill: rgb(112, 41, 33); stroke-width: 0;"/><text x="6" y="16" style="font-family: -apple-system, BlinkMacSystemFont, &quot;Segoe WPC&quot;, &quot;Segoe UI&quot;, Ubuntu, &quot;Droid Sans&quot;, sans-serif, &quot;PingFang SC&quot;; font-size: 11px; text-rendering: geometricprecision; fill: rgb(255, 255, 255);">ReLU</text></g><line class="node" x1="0" x2="91.546875" y1="57" y2="57" style="stroke: rgb(51, 51, 51); fill: none; stroke-width: 1px;"/><path class="node border" d="M5,0h81.546875a5,5 0 0 1 5,5v70a5,5 0 0 1 -5,5h-81.546875a5,5 0 0 1 -5,-5v-70a5,5 0 0 1 5,-5z" style="stroke: rgb(51, 51, 51); fill: none; stroke-width: 1px;"/></g><g id="node-name-concatenate_9" class="node graph-node" transform="translate(31.553955078125,330)" style="opacity: 1;"><g class="node-item node-item-type node-item-type-tensor" transform="translate(0,0)"><path d="M5,0h65.18798828125a5,5 0 0 1 5,5v13a5,5 0 0 1 -5,5h-65.18798828125a5,5 0 0 1 -5,-5v-13a5,5 0 0 1 5,-5z" style="stroke: rgb(0, 0, 0); fill: rgb(89, 66, 59); stroke-width: 0;"/><text x="6" y="16" style="font-family: -apple-system, BlinkMacSystemFont, &quot;Segoe WPC&quot;, &quot;Segoe UI&quot;, Ubuntu, &quot;Droid Sans&quot;, sans-serif, &quot;PingFang SC&quot;; font-size: 11px; text-rendering: geometricprecision; fill: rgb(255, 255, 255);">Concatenate</text><title>concatenate_9</title></g><path class="node border" d="M5,0h65.18798828125a5,5 0 0 1 5,5v13a5,5 0 0 1 -5,5h-65.18798828125a5,5 0 0 1 -5,-5v-13a5,5 0 0 1 5,-5z" style="stroke: rgb(51, 51, 51); fill: none; stroke-width: 1px;"/></g><g id="node-name-dense_38" class="node graph-node" transform="translate(28.22607421875,373)" style="opacity: 1;"><g class="node-item node-item-type node-item-type-layer" transform="translate(0,0)"><path d="M5,0h71.84375a5,5 0 0 1 5,5v18a0,0 0 0 1 0,0h-81.84375a0,0 0 0 1 0,0v-18a5,5 0 0 1 5,-5z" style="stroke: rgb(0, 0, 0); fill: rgb(51, 85, 136); stroke-width: 0;"/><text x="6" y="16" style="font-family: -apple-system, BlinkMacSystemFont, &quot;Segoe WPC&quot;, &quot;Segoe UI&quot;, Ubuntu, &quot;Droid Sans&quot;, sans-serif, &quot;PingFang SC&quot;; font-size: 11px; text-rendering: geometricprecision; fill: rgb(255, 255, 255);">Dense</text><title>dense_38</title></g><g class="node-attribute" transform="translate(0,23)"><path d="M0,0h81.84375a0,0 0 0 1 0,0v34a0,0 0 0 1 0,0h-81.84375a0,0 0 0 1 0,0v-34a0,0 0 0 1 0,0z" style="stroke: rgb(0, 0, 0); fill: rgb(255, 255, 255); stroke-width: 0;"/><text id="initializer-dense_38/kernel:0" xml:space="preserve" x="6" y="14" style="font-family: -apple-system, BlinkMacSystemFont, &quot;Segoe WPC&quot;, &quot;Segoe UI&quot;, Ubuntu, &quot;Droid Sans&quot;, sans-serif, &quot;PingFang SC&quot;; font-size: 9px; font-weight: normal; text-rendering: geometricprecision;"><title>float32[129,8]</title><tspan style="font-weight: bold;">kernel</tspan><tspan>〈129×8〉</tspan></text><text id="initializer-dense_38/bias:0" xml:space="preserve" x="6" y="28" style="font-family: -apple-system, BlinkMacSystemFont, &quot;Segoe WPC&quot;, &quot;Segoe UI&quot;, Ubuntu, &quot;Droid Sans&quot;, sans-serif, &quot;PingFang SC&quot;; font-size: 9px; font-weight: normal; text-rendering: geometricprecision;"><title>float32[8]</title><tspan style="font-weight: bold;">bias</tspan><tspan>〈8〉</tspan></text><line class="node" x1="0" x2="81.84375" y1="0" y2="0" style="stroke: rgb(51, 51, 51); fill: none; stroke-width: 1px;"/></g><g class="node-item node-item-type node-item-type-activation" transform="translate(0,57)"><path d="M0,0h81.84375a0,0 0 0 1 0,0v18a5,5 0 0 1 -5,5h-71.84375a5,5 0 0 1 -5,-5v-18a0,0 0 0 1 0,0z" style="stroke: rgb(0, 0, 0); fill: rgb(112, 41, 33); stroke-width: 0;"/><text x="6" y="16" style="font-family: -apple-system, BlinkMacSystemFont, &quot;Segoe WPC&quot;, &quot;Segoe UI&quot;, Ubuntu, &quot;Droid Sans&quot;, sans-serif, &quot;PingFang SC&quot;; font-size: 11px; text-rendering: geometricprecision; fill: rgb(255, 255, 255);">ReLU</text></g><line class="node" x1="0" x2="81.84375" y1="57" y2="57" style="stroke: rgb(51, 51, 51); fill: none; stroke-width: 1px;"/><path class="node border" d="M5,0h71.84375a5,5 0 0 1 5,5v70a5,5 0 0 1 -5,5h-71.84375a5,5 0 0 1 -5,-5v-70a5,5 0 0 1 5,-5z" style="stroke: rgb(51, 51, 51); fill: none; stroke-width: 1px;"/></g><g id="node-name-dense_39" class="node graph-node" transform="translate(31.64794921875,473)" style="opacity: 1;"><g class="node-item node-item-type node-item-type-layer" transform="translate(0,0)"><path d="M5,0h65a5,5 0 0 1 5,5v18a0,0 0 0 1 0,0h-75a0,0 0 0 1 0,0v-18a5,5 0 0 1 5,-5z" style="stroke: rgb(0, 0, 0); fill: rgb(51, 85, 136); stroke-width: 0;"/><text x="6" y="16" style="font-family: -apple-system, BlinkMacSystemFont, &quot;Segoe WPC&quot;, &quot;Segoe UI&quot;, Ubuntu, &quot;Droid Sans&quot;, sans-serif, &quot;PingFang SC&quot;; font-size: 11px; text-rendering: geometricprecision; fill: rgb(255, 255, 255);">Dense</text><title>dense_39</title></g><g class="node-attribute" transform="translate(0,23)"><path d="M0,0h75a0,0 0 0 1 0,0v34a0,0 0 0 1 0,0h-75a0,0 0 0 1 0,0v-34a0,0 0 0 1 0,0z" style="stroke: rgb(0, 0, 0); fill: rgb(255, 255, 255); stroke-width: 0;"/><text id="initializer-dense_39/kernel:0" xml:space="preserve" x="6" y="14" style="font-family: -apple-system, BlinkMacSystemFont, &quot;Segoe WPC&quot;, &quot;Segoe UI&quot;, Ubuntu, &quot;Droid Sans&quot;, sans-serif, &quot;PingFang SC&quot;; font-size: 9px; font-weight: normal; text-rendering: geometricprecision;"><title>float32[8,1]</title><tspan style="font-weight: bold;">kernel</tspan><tspan>〈8×1〉</tspan></text><text id="initializer-dense_39/bias:0" xml:space="preserve" x="6" y="28" style="font-family: -apple-system, BlinkMacSystemFont, &quot;Segoe WPC&quot;, &quot;Segoe UI&quot;, Ubuntu, &quot;Droid Sans&quot;, sans-serif, &quot;PingFang SC&quot;; font-size: 9px; font-weight: normal; text-rendering: geometricprecision;"><title>float32[1]</title><tspan style="font-weight: bold;">bias</tspan><tspan>〈1〉</tspan></text><line class="node" x1="0" x2="75" y1="0" y2="0" style="stroke: rgb(51, 51, 51); fill: none; stroke-width: 1px;"/></g><g class="node-item node-item-type node-item-type-activation" transform="translate(0,57)"><path d="M0,0h75a0,0 0 0 1 0,0v18a5,5 0 0 1 -5,5h-65a5,5 0 0 1 -5,-5v-18a0,0 0 0 1 0,0z" style="stroke: rgb(0, 0, 0); fill: rgb(112, 41, 33); stroke-width: 0;"/><text x="6" y="16" style="font-family: -apple-system, BlinkMacSystemFont, &quot;Segoe WPC&quot;, &quot;Segoe UI&quot;, Ubuntu, &quot;Droid Sans&quot;, sans-serif, &quot;PingFang SC&quot;; font-size: 11px; text-rendering: geometricprecision; fill: rgb(255, 255, 255);">Sigmoid</text></g><line class="node" x1="0" x2="75" y1="57" y2="57" style="stroke: rgb(51, 51, 51); fill: none; stroke-width: 1px;"/><path class="node border" d="M5,0h65a5,5 0 0 1 5,5v70a5,5 0 0 1 -5,5h-65a5,5 0 0 1 -5,-5v-70a5,5 0 0 1 5,-5z" style="stroke: rgb(51, 51, 51); fill: none; stroke-width: 1px;"/></g><g class="node" transform="translate(39.462890625,573)" style="opacity: 1;"><g class="node-item graph-item-output" transform="translate(0,0)"><path d="M5,0h49.3701171875a5,5 0 0 1 5,5v13a5,5 0 0 1 -5,5h-49.3701171875a5,5 0 0 1 -5,-5v-13a5,5 0 0 1 5,-5z" style="stroke: rgb(0, 0, 0); fill: rgb(238, 238, 238); stroke-width: 0;"/><text x="6" y="16" style="font-family: -apple-system, BlinkMacSystemFont, &quot;Segoe WPC&quot;, &quot;Segoe UI&quot;, Ubuntu, &quot;Droid Sans&quot;, sans-serif, &quot;PingFang SC&quot;; font-size: 11px; text-rendering: geometricprecision;">dense_39</text></g><path class="node border" d="M5,0h49.3701171875a5,5 0 0 1 5,5v13a5,5 0 0 1 -5,5h-49.3701171875a5,5 0 0 1 -5,-5v-13a5,5 0 0 1 5,-5z" style="stroke: rgb(51, 51, 51); fill: none; stroke-width: 1px;"/></g></g></g></svg>